# 3ds Max Wavefront OBJ Exporter v0.97b - (c)2007 guruware
# File Created: 26.02.2019 15:47:36

mtllib keuken_en_vloer.mtl

#
# object keuken
#

v  -0.1200 0.0750 4.3243
v  3.7368 0.0750 4.3246
v  3.7366 0.0750 0.2978
v  3.7366 0.0750 -0.8312
v  3.7365 0.0750 -1.4658
v  -0.1198 0.0750 -1.4663
v  -0.1198 0.2316 -1.4663
v  -0.1198 0.2316 -0.6391
v  -0.1200 0.2316 4.3243
v  3.7368 0.2316 4.3246
v  3.7365 0.2316 -1.4658
v  3.7366 0.2316 -0.8312
v  -0.1198 1.1460 -1.4663
v  -0.1198 1.1460 -0.6391
v  -0.1200 1.1460 4.3243
v  -0.1200 3.7094 4.3243
v  3.7368 3.7094 4.3246
v  3.7368 2.9252 4.3246
v  3.7368 2.6239 4.3246
v  3.7365 2.6239 -1.4658
v  3.7365 2.9252 -1.4658
v  3.7365 3.7094 -1.4658
v  -0.1198 3.7094 -1.4663
v  3.7366 2.6239 0.2978
v  3.7366 0.2316 0.2978
v  -0.1199 3.7094 3.4550
v  -0.1199 1.1460 3.4550
v  -0.1199 3.7094 1.1145
v  -0.1199 3.7094 1.7014
v  -0.1199 1.1460 1.7014
v  -0.1199 1.1460 1.1145
v  -0.1198 3.7094 -0.6391
v  -0.1199 0.2316 3.4550
v  -0.1199 0.2316 1.7014
v  -0.1199 0.2316 1.1145
v  -0.2992 1.1460 3.4547
v  -0.2992 3.7094 3.4547
v  -0.2991 3.7094 1.7011
v  -0.2991 1.1460 1.7011
v  -0.2991 1.1460 1.1141
v  -0.2991 3.7094 1.1141
v  -0.2991 3.7094 -0.6395
v  -0.2991 1.1460 -0.6395
v  5.6718 0.0750 -4.3907
v  5.6721 0.0750 7.2495
v  5.6721 0.2316 7.2495
v  5.6718 0.2316 -4.3907
v  5.6721 3.7094 7.2495
v  5.6718 3.7094 -4.3907
v  3.7355 0.0750 7.2636
v  7.5922 0.0750 7.2644
v  7.5920 0.0750 -4.4051
v  3.7357 0.0750 -4.4060
v  7.5807 0.0750 7.2411
v  3.7240 0.0750 7.2407
v  3.7240 0.2316 7.2407
v  7.5807 0.2316 7.2411
v  3.7242 0.0750 -4.2640
v  7.5805 0.0750 -4.2636
v  7.5805 0.2316 -4.2636
v  3.7242 0.2316 -4.2640
v  3.7240 1.1460 7.2407
v  3.7240 3.7094 7.2407
v  7.5807 3.7094 7.2411
v  7.5805 3.7094 -4.2636
v  3.7242 3.7094 -4.2640
v  3.7242 1.1460 -4.2640
v  3.7366 3.7094 -0.8312
v  3.7366 2.9252 -0.8312
v  3.7366 3.7094 0.2978
v  3.7366 3.7094 -0.0299
v  3.7366 2.9252 -0.0299
v  3.7366 2.9252 0.2978
v  3.7366 2.6239 -0.8312
v  3.7366 3.7094 -0.5139
v  3.7366 2.9252 -0.5139
v  -0.2262 0.2316 4.3243
v  -0.2262 1.1460 4.3243
v  -0.2262 3.7094 4.3243
v  3.6306 3.7094 4.3246
v  3.6306 2.9252 4.3246
v  3.6306 2.6239 4.3246
v  3.6306 0.2316 4.3246
v  4.0516 0.0750 -0.8285
v  4.0516 0.2316 -0.8285
v  4.0516 2.6239 -0.8285
v  4.0516 2.9252 -0.8285
v  4.0569 0.0750 0.2972
v  4.0569 0.2316 0.2972
v  4.0569 2.6239 0.2972
v  4.0569 2.9252 0.2972
# 91 vertices

vn 0.0000 1.0000 -0.0000
vn 1.0000 0.0000 0.0000
vn 0.0001 0.0000 -1.0000
vn -0.0001 0.0000 1.0000
vn -1.0000 0.0000 0.0000
vn -1.0000 -0.0000 0.0000
vn 1.0000 -0.0000 0.0000
vn 0.0018 0.0000 -1.0000
vn -0.0018 0.0000 1.0000
vn -0.0084 0.0000 1.0000
vn -0.0020 0.0000 -1.0000
vn -0.0020 -0.0000 -1.0000
vn -0.0084 -0.0000 1.0000
vn -0.0000 -1.0000 0.0000
vn -0.0000 -1.0000 -0.0000
# 15 vertex normals

vt -0.0003 0.5308 0.0000
vt -0.0003 0.0281 0.0000
vt 0.6947 0.0273 0.0000
vt 0.8895 0.0271 0.0000
vt 0.9991 0.0270 0.0000
vt 0.9991 0.5308 0.0000
vt 0.9991 -0.0001 0.0000
vt 0.9991 0.0266 0.0000
vt 0.8558 0.0266 0.0000
vt 0.7388 0.0000 0.0000
vt 0.0622 0.0000 0.0000
vt 0.0622 0.0266 0.0000
vt 0.7388 0.0266 0.0000
vt 0.7327 0.0000 0.0000
vt 0.7327 0.0266 0.0000
vt 0.8895 -0.0001 0.0000
vt 0.8895 0.0266 0.0000
vt 0.9991 0.5347 0.0000
vt 0.9991 0.6571 0.0000
vt 0.8558 0.6571 0.0000
vt 0.8558 0.5347 0.0000
vt -0.0003 0.5347 0.0000
vt -0.0003 0.6571 0.0000
vt -0.0003 1.0000 0.0000
vt 0.9991 1.0000 0.0000
vt 0.9991 0.8951 0.0000
vt 0.9991 0.8548 0.0000
vt -0.0003 0.8548 0.0000
vt 0.6947 0.8548 0.0000
vt 0.6947 0.5347 0.0000
vt 0.1492 1.0000 0.0000
vt 0.1492 0.6571 0.0000
vt 0.5532 1.0000 0.0000
vt 0.4519 1.0000 0.0000
vt 0.4519 0.6571 0.0000
vt 0.5532 0.6571 0.0000
vt 0.8558 1.0000 0.0000
vt 0.1492 0.5347 0.0000
vt 0.4519 0.5347 0.0000
vt 0.5532 0.5347 0.0000
vt 0.1492 0.0266 0.0000
vt -0.0003 0.0266 0.0000
vt -0.0003 -0.0001 0.0000
vt 0.4519 0.0266 0.0000
vt 0.5532 0.0266 0.0000
vt 0.8895 1.0000 0.0000
vt 0.8895 0.8951 0.0000
vt 0.6947 1.0000 0.0000
vt 0.7513 1.0000 0.0000
vt 0.7513 0.8951 0.0000
vt 0.6947 0.8951 0.0000
vt 0.6947 -0.0001 0.0000
vt 0.6947 0.0266 0.0000
vt -0.0003 0.8951 0.0000
vt 0.8895 0.8548 0.0000
vt 0.8348 1.0000 0.0000
vt 0.8348 0.8951 0.0000
vt 0.8895 0.5347 0.0000
vt 0.8348 -0.0001 0.0000
vt 0.8348 0.0266 0.0000
vt 0.8348 0.8548 0.0000
vt 0.7513 -0.0001 0.0000
vt 0.7513 0.0266 0.0000
vt 0.7513 0.5347 0.0000
vt 0.7513 0.8548 0.0000
vt 0.8348 0.5347 0.0000
# 66 texture coords

g keuken
usemtl material_keuken
s off
f 1/1/1 2/2/1 3/3/1 4/4/1 5/5/1 6/6/1 
f 6/7/2 7/8/2 8/9/2 
f 2/10/3 1/11/3 9/12/3 10/13/3 
f 6/11/4 5/14/4 11/15/4 7/12/4 
f 5/7/5 4/16/5 12/17/5 11/8/5 
f 7/18/2 13/19/2 14/20/2 8/21/2 
f 9/22/3 15/23/3 16/24/3 17/25/3 18/26/3 19/27/3 10/18/3 
f 11/18/4 20/27/4 21/26/4 22/25/4 23/24/4 13/23/4 7/22/4 
f 10/22/6 19/28/6 24/29/6 25/30/6 
f 26/31/2 16/24/2 15/23/2 27/32/2 
f 28/33/7 29/34/7 30/35/7 31/36/7 
f 13/19/2 23/25/2 32/37/2 14/20/2 
f 15/23/2 9/22/2 33/38/2 27/32/2 
f 27/32/7 33/38/7 34/39/7 30/35/7 
f 30/35/7 34/39/7 35/40/7 31/36/7 
f 31/36/2 35/40/2 8/21/2 14/20/2 
f 26/31/8 27/32/8 36/32/8 37/31/8 
f 30/35/9 29/34/9 38/34/9 39/35/9 
f 28/33/8 31/36/8 40/36/8 41/33/8 
f 14/20/9 32/37/9 42/37/9 43/20/9 
f 27/32/1 30/35/1 39/35/1 36/32/1 
f 31/36/1 14/20/1 43/20/1 40/36/1 
f 33/41/2 9/42/2 1/43/2 
f 34/44/2 33/41/2 1/43/2 
f 8/9/2 35/45/2 6/7/2 
f 35/45/2 34/44/2 1/43/2 6/7/2 
f 44/7/5 45/43/5 46/42/5 47/8/5 
f 46/22/5 48/24/5 49/25/5 47/18/5 
f 50/1/1 51/2/1 52/5/1 53/6/1 
f 54/10/3 55/11/3 56/12/3 57/13/3 
f 58/11/4 59/14/4 60/15/4 61/12/4 
f 56/22/3 62/23/3 63/24/3 64/25/3 57/18/3 
f 60/18/4 65/25/4 66/24/4 67/23/4 61/22/4 
f 68/46/5 22/25/5 21/26/5 69/47/5 
f 70/48/6 71/49/6 72/50/6 73/51/6 
f 3/52/5 2/43/5 10/42/5 25/53/5 
f 18/54/5 17/24/5 70/48/5 73/51/5 
f 21/26/6 20/27/6 74/55/6 69/47/6 
f 75/56/5 68/46/5 69/47/5 76/57/5 
f 71/49/5 75/56/5 76/57/5 72/50/5 
f 19/28/5 18/54/5 73/51/5 24/29/5 
f 20/27/6 11/18/6 12/58/6 74/55/6 
f 77/22/3 78/23/3 79/24/3 80/25/3 81/26/3 82/27/3 83/18/3 
f 4/16/10 84/59/10 85/60/10 12/17/10 
f 69/47/10 74/55/10 86/61/10 87/57/10 
f 88/62/11 3/52/11 25/53/11 89/63/11 
f 89/64/12 25/30/12 24/29/12 90/65/12 
f 74/55/13 12/58/13 85/66/13 86/61/13 
f 24/29/11 73/51/11 91/50/11 90/65/11 
f 91/29/14 73/51/14 72/50/14 
f 76/57/14 69/47/14 87/55/14 
f 72/50/15 76/57/15 87/55/15 91/29/15 
# 46 polygons - 6 triangles

