# This file uses centimeters as units for non-parametric coordinates.

mtllib watch_glass.mtl
g default
v 0.025125 0.038069 -0.011038
v 0.018403 0.038069 -0.020168
v 0.008499 0.038069 -0.025810
v -0.002875 0.038069 -0.026990
v -0.013752 0.038069 -0.023502
v -0.022250 0.038069 -0.015951
v -0.026902 0.038069 -0.005642
v -0.026902 0.038069 0.005642
v -0.022250 0.038069 0.015951
v -0.013752 0.038069 0.023502
v -0.002875 0.038069 0.026990
v 0.008499 0.038069 0.025810
v 0.018403 0.038069 0.020168
v 0.025125 0.038069 0.011038
v 0.027503 0.038069 0.000000
v 0.023401 0.039981 -0.010281
v 0.017140 0.039981 -0.018784
v 0.007916 0.039981 -0.024039
v -0.002678 0.039981 -0.025138
v -0.012808 0.039981 -0.021890
v -0.020724 0.039981 -0.014857
v -0.025056 0.039981 -0.005255
v -0.025056 0.039981 0.005255
v -0.020724 0.039981 0.014857
v -0.012808 0.039981 0.021890
v -0.002678 0.039981 0.025138
v 0.007916 0.039981 0.024039
v 0.017140 0.039981 0.018784
v 0.023401 0.039981 0.010281
v 0.025616 0.039981 0.000000
v 0.020081 0.042553 -0.008822
v 0.014708 0.042553 -0.016119
v 0.006793 0.042553 -0.020628
v -0.002298 0.042553 -0.021571
v -0.010991 0.042553 -0.018784
v -0.017783 0.042553 -0.012749
v -0.021501 0.042553 -0.004510
v -0.021501 0.042553 0.004510
v -0.017783 0.042553 0.012749
v -0.010991 0.042553 0.018784
v -0.002298 0.042553 0.021571
v 0.006793 0.042553 0.020628
v 0.014708 0.042553 0.016119
v 0.020081 0.042553 0.008822
v 0.021981 0.042553 0.000000
v 0.015883 0.044681 -0.006978
v 0.011634 0.044681 -0.012749
v 0.005373 0.044681 -0.016316
v -0.001817 0.044681 -0.017061
v -0.008693 0.044681 -0.014857
v -0.014066 0.044681 -0.010084
v -0.017006 0.044681 -0.003567
v -0.017006 0.044681 0.003567
v -0.014066 0.044681 0.010084
v -0.008693 0.044681 0.014857
v -0.001817 0.044681 0.017061
v 0.005373 0.044681 0.016316
v 0.011634 0.044681 0.012749
v 0.015883 0.044681 0.006978
v 0.017386 0.044681 0.000000
v 0.010991 0.046271 -0.004828
v 0.008050 0.046271 -0.008822
v 0.003718 0.046271 -0.011290
v -0.001258 0.046271 -0.011806
v -0.006015 0.046271 -0.010281
v -0.009733 0.046271 -0.006978
v -0.011768 0.046271 -0.002468
v -0.011768 0.046271 0.002468
v -0.009733 0.046271 0.006978
v -0.006015 0.046271 0.010281
v -0.001258 0.046271 0.011806
v 0.003718 0.046271 0.011290
v 0.008050 0.046271 0.008822
v 0.010991 0.046271 0.004828
v 0.012031 0.046271 0.000000
v 0.005818 0.047242 -0.002556
v 0.004261 0.047242 -0.004670
v 0.001968 0.047242 -0.005977
v -0.000666 0.047242 -0.006250
v -0.003184 0.047242 -0.005442
v -0.005152 0.047242 -0.003694
v -0.006230 0.047242 -0.001307
v -0.006230 0.047242 0.001307
v -0.005152 0.047242 0.003694
v -0.003184 0.047242 0.005442
v -0.000666 0.047242 0.006250
v 0.001968 0.047242 0.005977
v 0.004261 0.047242 0.004670
v 0.005818 0.047242 0.002556
v 0.006369 0.047242 0.000000
v 0.000000 0.047630 0.000000
vt 0.758286 0.064057
vt 0.914500 0.203518
vt 0.886440 0.223871
vt 0.740943 0.093979
vt 1.000000 0.394268
vt 0.966073 0.401533
vt 1.000000 0.603326
vt 0.966073 0.596246
vt 0.914500 0.794541
vt 0.886440 0.774342
vt 0.758285 0.934854
vt 0.740942 0.905027
vt 0.558365 1.000000
vt 0.554739 0.965704
vt 0.349307 0.978718
vt 0.360026 0.945881
vt 0.167261 0.874685
vt 0.190471 0.848987
vt 0.043705 0.705891
vt 0.075391 0.691774
vt -0.000000 0.501521
vt 0.034685 0.501427
vt 0.043705 0.296914
vt 0.075392 0.310858
vt 0.167263 0.127446
vt 0.190472 0.153018
vt 0.349313 0.022430
vt 0.360027 0.055200
vt 0.558366 0.000000
vt 0.554740 0.034316
vt 0.832392 0.263071
vt 0.707540 0.151609
vt 0.900726 0.415525
vt 0.900725 0.582610
vt 0.832391 0.735436
vt 0.707538 0.847578
vt 0.547756 0.899646
vt 0.380670 0.882636
vt 0.235174 0.799490
vt 0.136423 0.664584
vt 0.101493 0.501245
vt 0.136423 0.337716
vt 0.235174 0.202272
vt 0.380672 0.118333
vt 0.547757 0.100413
vt 0.764058 0.312633
vt 0.665307 0.224473
vt 0.818106 0.433216
vt 0.818106 0.565370
vt 0.764057 0.686247
vt 0.665306 0.774945
vt 0.538927 0.816127
vt 0.406772 0.802673
vt 0.291692 0.736909
vt 0.213586 0.630207
vt 0.185958 0.501015
vt 0.213586 0.371673
vt 0.291693 0.264544
vt 0.406773 0.198153
vt 0.538928 0.183979
vt 0.684425 0.370390
vt 0.616091 0.309385
vt 0.721825 0.453831
vt 0.721825 0.545279
vt 0.684424 0.628924
vt 0.616090 0.690301
vt 0.528638 0.718799
vt 0.437189 0.709489
vt 0.357556 0.663981
vt 0.303508 0.590145
vt 0.284390 0.500747
vt 0.303508 0.411244
vt 0.357557 0.337113
vt 0.437190 0.291172
vt 0.528639 0.281364
vt 0.600228 0.431457
vt 0.564054 0.399163
vt 0.620026 0.475628
vt 0.620026 0.524037
vt 0.600228 0.568316
vt 0.564054 0.600807
vt 0.517760 0.615893
vt 0.469350 0.610964
vt 0.427195 0.586874
vt 0.398583 0.547788
vt 0.388463 0.500463
vt 0.398583 0.453084
vt 0.427195 0.413841
vt 0.469350 0.389522
vt 0.517760 0.384330
vt 0.505524 0.500144
vn 0.649596 0.701832 -0.292331
vn 0.475032 0.699984 -0.533260
vn 0.427495 0.765465 -0.480948
vn 0.584872 0.767035 -0.263784
vn 0.219057 0.698308 -0.681454
vn 0.197051 0.764043 -0.614336
vn -0.074072 0.697908 -0.712347
vn -0.066624 0.763704 -0.642119
vn -0.354668 0.699044 -0.620925
vn -0.319099 0.764668 -0.559874
vn -0.574836 0.700972 -0.422140
vn -0.517443 0.766305 -0.380827
vn -0.695887 0.702417 -0.149507
vn -0.626648 0.767533 -0.134928
vn -0.695885 0.702418 0.149506
vn -0.626648 0.767533 0.134928
vn -0.574834 0.700973 0.422140
vn -0.517443 0.766304 0.380828
vn -0.354667 0.699045 0.620924
vn -0.319099 0.764668 0.559874
vn -0.074072 0.697909 0.712346
vn -0.066624 0.763704 0.642119
vn 0.219056 0.698311 0.681452
vn 0.197050 0.764044 0.614335
vn 0.475051 0.699963 0.533272
vn 0.427504 0.765458 0.480952
vn 0.649640 0.701784 0.292348
vn 0.584891 0.767018 0.263793
vn 0.711583 0.702602 0.000006
vn 0.640808 0.767701 0.000003
vn 0.342173 0.857017 -0.385280
vn 0.467964 0.858132 -0.211233
vn 0.157776 0.856006 -0.492302
vn -0.053350 0.855764 -0.514609
vn -0.255461 0.856449 -0.448592
vn -0.414086 0.857612 -0.305014
vn -0.501330 0.858485 -0.108036
vn -0.501330 0.858485 0.108035
vn -0.414087 0.857612 0.305014
vn -0.255461 0.856449 0.448593
vn -0.053350 0.855764 0.514609
vn 0.157776 0.856006 0.492302
vn 0.342173 0.857017 0.385279
vn 0.467964 0.858132 0.211233
vn 0.512629 0.858610 0.000000
vn 0.245959 0.928840 -0.277057
vn 0.336222 0.929464 -0.151829
vn 0.113459 0.928274 -0.354168
vn -0.038369 0.928138 -0.370254
vn -0.183673 0.928521 -0.322664
vn -0.297578 0.929173 -0.219284
vn -0.360142 0.929661 -0.077642
vn -0.360142 0.929661 0.077641
vn -0.297578 0.929173 0.219284
vn -0.183673 0.928521 0.322664
vn -0.038369 0.928138 0.370254
vn 0.113459 0.928273 0.354168
vn 0.245959 0.928840 0.277057
vn 0.336222 0.929464 0.151829
vn 0.368239 0.929731 0.000000
vn 0.164866 0.968654 -0.185820
vn 0.225343 0.968945 -0.101817
vn 0.076060 0.968390 -0.237563
vn -0.025722 0.968327 -0.248359
vn -0.123123 0.968506 -0.216420
vn -0.199453 0.968809 -0.147062
vn -0.241365 0.969037 -0.052065
vn -0.241365 0.969037 0.052065
vn -0.199453 0.968809 0.147062
vn -0.123123 0.968506 0.216420
vn -0.025722 0.968327 0.248359
vn 0.076060 0.968390 0.237563
vn 0.164866 0.968654 0.185819
vn 0.225343 0.968945 0.101817
vn 0.246788 0.969069 0.000000
vn 0.096552 0.989349 -0.108928
vn 0.132002 0.989450 -0.059700
vn 0.044534 0.989258 -0.139231
vn -0.015060 0.989236 -0.145550
vn -0.072097 0.989298 -0.126851
vn -0.116823 0.989403 -0.086219
vn -0.141398 0.989482 -0.030531
vn -0.141398 0.989482 0.030530
vn -0.116823 0.989403 0.086219
vn -0.072097 0.989298 0.126851
vn -0.015060 0.989236 0.145550
vn 0.044534 0.989258 0.139230
vn 0.096552 0.989349 0.108929
vn 0.132002 0.989450 0.059700
vn 0.144579 0.989493 0.000000
vn -0.000000 1.000000 -0.000000
s 1
g glass group1
usemtl watchsteampunk1:lambert4SG
f 1/1/1 2/2/2 17/3/3 16/4/4
f 2/2/2 3/5/5 18/6/6 17/3/3
f 3/5/5 4/7/7 19/8/8 18/6/6
f 4/7/7 5/9/9 20/10/10 19/8/8
f 5/9/9 6/11/11 21/12/12 20/10/10
f 6/11/11 7/13/13 22/14/14 21/12/12
f 7/13/13 8/15/15 23/16/16 22/14/14
f 8/15/15 9/17/17 24/18/18 23/16/16
f 9/17/17 10/19/19 25/20/20 24/18/18
f 10/19/19 11/21/21 26/22/22 25/20/20
f 11/21/21 12/23/23 27/24/24 26/22/22
f 12/23/23 13/25/25 28/26/26 27/24/24
f 13/25/25 14/27/27 29/28/28 28/26/26
f 14/27/27 15/29/29 30/30/30 29/28/28
f 15/29/29 1/1/1 16/4/4 30/30/30
f 16/4/4 17/3/3 32/31/31 31/32/32
f 17/3/3 18/6/6 33/33/33 32/31/31
f 18/6/6 19/8/8 34/34/34 33/33/33
f 19/8/8 20/10/10 35/35/35 34/34/34
f 20/10/10 21/12/12 36/36/36 35/35/35
f 21/12/12 22/14/14 37/37/37 36/36/36
f 22/14/14 23/16/16 38/38/38 37/37/37
f 23/16/16 24/18/18 39/39/39 38/38/38
f 24/18/18 25/20/20 40/40/40 39/39/39
f 25/20/20 26/22/22 41/41/41 40/40/40
f 26/22/22 27/24/24 42/42/42 41/41/41
f 27/24/24 28/26/26 43/43/43 42/42/42
f 28/26/26 29/28/28 44/44/44 43/43/43
f 29/28/28 30/30/30 45/45/45 44/44/44
f 30/30/30 16/4/4 31/32/32 45/45/45
f 31/32/32 32/31/31 47/46/46 46/47/47
f 32/31/31 33/33/33 48/48/48 47/46/46
f 33/33/33 34/34/34 49/49/49 48/48/48
f 34/34/34 35/35/35 50/50/50 49/49/49
f 35/35/35 36/36/36 51/51/51 50/50/50
f 36/36/36 37/37/37 52/52/52 51/51/51
f 37/37/37 38/38/38 53/53/53 52/52/52
f 38/38/38 39/39/39 54/54/54 53/53/53
f 39/39/39 40/40/40 55/55/55 54/54/54
f 40/40/40 41/41/41 56/56/56 55/55/55
f 41/41/41 42/42/42 57/57/57 56/56/56
f 42/42/42 43/43/43 58/58/58 57/57/57
f 43/43/43 44/44/44 59/59/59 58/58/58
f 44/44/44 45/45/45 60/60/60 59/59/59
f 45/45/45 31/32/32 46/47/47 60/60/60
f 46/47/47 47/46/46 62/61/61 61/62/62
f 47/46/46 48/48/48 63/63/63 62/61/61
f 48/48/48 49/49/49 64/64/64 63/63/63
f 49/49/49 50/50/50 65/65/65 64/64/64
f 50/50/50 51/51/51 66/66/66 65/65/65
f 51/51/51 52/52/52 67/67/67 66/66/66
f 52/52/52 53/53/53 68/68/68 67/67/67
f 53/53/53 54/54/54 69/69/69 68/68/68
f 54/54/54 55/55/55 70/70/70 69/69/69
f 55/55/55 56/56/56 71/71/71 70/70/70
f 56/56/56 57/57/57 72/72/72 71/71/71
f 57/57/57 58/58/58 73/73/73 72/72/72
f 58/58/58 59/59/59 74/74/74 73/73/73
f 59/59/59 60/60/60 75/75/75 74/74/74
f 60/60/60 46/47/47 61/62/62 75/75/75
f 61/62/62 62/61/61 77/76/76 76/77/77
f 62/61/61 63/63/63 78/78/78 77/76/76
f 63/63/63 64/64/64 79/79/79 78/78/78
f 64/64/64 65/65/65 80/80/80 79/79/79
f 65/65/65 66/66/66 81/81/81 80/80/80
f 66/66/66 67/67/67 82/82/82 81/81/81
f 67/67/67 68/68/68 83/83/83 82/82/82
f 68/68/68 69/69/69 84/84/84 83/83/83
f 69/69/69 70/70/70 85/85/85 84/84/84
f 70/70/70 71/71/71 86/86/86 85/85/85
f 71/71/71 72/72/72 87/87/87 86/86/86
f 72/72/72 73/73/73 88/88/88 87/87/87
f 73/73/73 74/74/74 89/89/89 88/88/88
f 74/74/74 75/75/75 90/90/90 89/89/89
f 75/75/75 61/62/62 76/77/77 90/90/90
f 76/77/77 77/76/76 91/91/91
f 77/76/76 78/78/78 91/91/91
f 78/78/78 79/79/79 91/91/91
f 79/79/79 80/80/80 91/91/91
f 80/80/80 81/81/81 91/91/91
f 81/81/81 82/82/82 91/91/91
f 82/82/82 83/83/83 91/91/91
f 83/83/83 84/84/84 91/91/91
f 84/84/84 85/85/85 91/91/91
f 85/85/85 86/86/86 91/91/91
f 86/86/86 87/87/87 91/91/91
f 87/87/87 88/88/88 91/91/91
f 88/88/88 89/89/89 91/91/91
f 89/89/89 90/90/90 91/91/91
f 90/90/90 76/77/77 91/91/91
