# This file uses centimeters as units for non-parametric coordinates.

mtllib Stooje_Final.mtl
g default
v -0.113559 -0.099762 -0.083664
v 0.114299 -0.102943 -0.079849
v -0.120369 -0.099762 0.098251
v 0.111134 -0.102943 0.101318
v -0.113559 -0.087990 -0.083664
v 0.114299 -0.087990 -0.079849
v -0.120369 -0.087990 0.098251
v 0.111134 -0.087990 0.101318
v -0.100049 -0.088387 -0.075474
v 0.103546 -0.088387 -0.068031
v -0.109379 -0.088387 0.088791
v 0.098580 -0.084366 0.095638
v -0.099843 0.077744 -0.078312
v 0.101757 0.077744 -0.070896
v -0.111512 0.077744 0.088680
v 0.097654 0.077744 0.094826
v -0.122712 0.077744 -0.088421
v 0.119013 0.077744 -0.083256
v -0.123535 0.077744 0.104107
v 0.119518 0.077744 0.104870
v -0.119948 0.086113 -0.086159
v 0.116256 0.086113 -0.081116
v -0.120753 0.086113 0.101967
v 0.116750 0.086113 0.102711
v -0.112657 0.091492 -0.080559
v 0.108988 0.091492 -0.076008
v -0.113719 0.091492 0.096848
v 0.109674 0.091492 0.097015
v -0.097678 0.097740 -0.069107
v 0.094492 0.097740 -0.064693
v -0.099284 0.097733 0.085781
v 0.094790 0.097733 0.085278
v -0.108369 0.093918 -0.077259
v -0.109556 0.093918 0.093647
v 0.105434 0.093910 0.093639
v 0.104815 0.093918 -0.072670
v -0.117648 0.090149 -0.084232
v -0.118389 0.090149 0.100273
v 0.114550 0.090149 0.100914
v 0.113831 0.090149 -0.079426
v 0.097083 -0.102707 -0.080139
v 0.097083 -0.087990 -0.080139
v 0.088161 -0.088387 -0.068596
v 0.086525 0.077744 -0.071457
v 0.100748 0.077744 -0.083649
v 0.098406 0.086113 -0.081493
v 0.096337 0.090149 -0.079788
v 0.092238 0.091492 -0.076351
v 0.088706 0.093918 -0.073017
v 0.079970 0.097740 -0.065025
v 0.080126 0.097733 0.085316
v 0.089190 0.093910 0.093639
v 0.092793 0.091492 0.097004
v 0.096950 0.090149 0.100864
v 0.098803 0.086113 0.102657
v 0.101153 0.077744 0.104809
v 0.079847 0.077744 0.094257
v 0.080843 -0.084671 0.095016
v 0.093641 -0.087990 0.101089
v 0.093641 -0.102707 0.101089
v -0.095183 -0.100021 -0.083355
v -0.095183 -0.087990 -0.083355
v -0.083631 -0.088387 -0.074871
v -0.083584 0.077744 -0.077717
v -0.103217 0.077744 -0.088001
v -0.100898 0.086113 -0.085754
v -0.098979 0.090149 -0.083843
v -0.094779 0.091492 -0.080196
v -0.091173 0.093918 -0.076889
v -0.082179 0.097740 -0.068748
v -0.083632 0.097733 0.085739
v -0.092216 0.093918 0.093647
v -0.095702 0.091492 0.096863
v -0.099604 0.090149 0.100327
v -0.101599 0.086113 0.102028
v -0.103934 0.077744 0.104168
v -0.092690 0.077744 0.089279
v -0.090698 -0.088058 0.089443
v -0.101699 -0.087990 0.098499
v -0.101699 -0.100021 0.098499
v -0.087606 0.077370 -0.065956
v -0.085619 -0.088432 -0.065788
v 0.085923 -0.085045 -0.060219
v 0.084929 0.077370 -0.060978
vt 0.485725 0.975020
vt 0.482510 0.790208
vt 0.499238 0.794145
vt 0.501773 0.970219
vt 0.485582 0.775529
vt 0.511437 0.786626
vt 0.269058 0.796560
vt 0.266565 0.975007
vt 0.256246 0.979580
vt 0.258286 0.791804
vt 0.515284 0.977219
vt 0.489088 0.989626
vt 0.783977 0.606542
vt 0.764853 0.606706
vt 0.755062 0.622761
vt 0.772152 0.623030
vt 0.530901 0.608716
vt 0.525134 0.857413
vt 0.537245 0.844134
vt 0.545985 0.619465
vt 0.782249 0.854099
vt 0.768253 0.846746
vt 0.748549 0.846469
vt 0.762820 0.854350
vt 0.236547 0.256198
vt 0.236742 0.277101
vt 0.011151 0.281563
vt 0.010959 0.260864
vt 0.239121 0.532830
vt 0.244907 0.756169
vt 0.019375 0.762024
vt 0.013506 0.534789
vt 0.230247 0.033870
vt 0.010116 0.035765
vt 0.009766 0.011578
vt 0.230310 0.009766
vt 0.744321 0.028810
vt 0.726949 0.029156
vt 0.742406 0.010585
vt 0.763219 0.009766
vt 0.514422 0.033383
vt 0.511138 0.273982
vt 0.498374 0.297035
vt 0.487788 0.020604
vt 0.749570 0.267013
vt 0.775058 0.279776
vt 0.754150 0.281080
vt 0.729270 0.267539
vt 0.511746 0.594426
vt 0.501408 0.569618
vt 0.510987 0.565561
vt 0.515374 0.585709
vt 0.509418 0.306556
vt 0.728241 0.308040
vt 0.724714 0.316830
vt 0.512923 0.315394
vt 0.725940 0.597415
vt 0.722537 0.588617
vt 0.726960 0.568347
vt 0.736521 0.572479
vt 0.517862 0.581074
vt 0.515822 0.562499
vt 0.519929 0.557472
vt 0.521907 0.575885
vt 0.515522 0.320016
vt 0.722268 0.321476
vt 0.718250 0.326491
vt 0.519684 0.325459
vt 0.720064 0.584067
vt 0.715608 0.578774
vt 0.717655 0.560249
vt 0.722111 0.565475
vt 0.525889 0.570800
vt 0.524553 0.553151
vt 0.534693 0.542951
vt 0.535118 0.558982
vt 0.523489 0.330748
vt 0.714438 0.331576
vt 0.705364 0.343301
vt 0.532630 0.343136
vt 0.711717 0.573539
vt 0.702349 0.561172
vt 0.702816 0.544989
vt 0.713087 0.555769
vt 0.286664 0.792818
vt 0.283926 0.780763
vt 0.551312 0.608540
vt 0.564225 0.619753
vt 0.238914 0.510519
vt 0.013301 0.512697
vt 0.532964 0.033014
vt 0.510002 0.019730
vt 0.498992 0.333173
vt 0.508685 0.337061
vt 0.513646 0.339931
vt 0.517898 0.345151
vt 0.522449 0.349608
vt 0.532579 0.360255
vt 0.705394 0.360555
vt 0.715499 0.350566
vt 0.720030 0.346341
vt 0.724202 0.341538
vt 0.729076 0.338643
vt 0.738755 0.334791
vt 0.520689 0.295643
vt 0.532597 0.273420
vt 0.251069 0.226612
vt 0.476154 0.220582
vt 0.480594 0.453642
vt 0.260160 0.460820
vt 0.557996 0.844420
vt 0.545870 0.857145
vt 0.282506 0.990234
vt 0.285021 0.978142
vt 0.245452 0.781547
vt 0.020367 0.787577
vt 0.245042 0.015795
vt 0.470128 0.009766
vt 0.752658 0.634275
vt 0.562106 0.632226
vt 0.487894 0.664417
vt 0.267459 0.671597
vt 0.529087 0.050200
vt 0.725760 0.044320
vn -0.013861 -0.999904 -0.000252
vn -0.013861 -0.999904 -0.000252
vn -0.013861 -0.999904 -0.000252
vn -0.013861 -0.999904 -0.000252
vn 0.016739 0.000000 -0.999860
vn 0.016740 0.000000 -0.999860
vn 0.016740 0.000000 -0.999860
vn 0.016739 0.000000 -0.999860
vn -0.999300 0.000000 -0.037410
vn -0.999300 0.000000 -0.037410
vn -0.999300 0.000000 -0.037410
vn -0.999300 0.000000 -0.037410
vn 0.999847 0.000000 0.017473
vn 0.999847 0.000000 0.017473
vn 0.999847 0.000000 0.017473
vn 0.999847 0.000000 0.017473
vn -0.013245 0.000000 0.999912
vn -0.013245 0.000000 0.999912
vn -0.013245 0.000000 0.999912
vn -0.013245 0.000000 0.999912
vn 0.121028 0.992641 -0.004109
vn -0.001007 0.999254 0.038600
vn -0.001034 0.999214 0.039637
vn 0.123638 0.992315 -0.004917
vn 0.031535 0.999498 0.003051
vn 0.029826 0.999555 -0.000986
vn 0.029406 0.999567 -0.001364
vn 0.029978 0.999537 0.005267
vn 0.131703 0.991280 0.004334
vn 0.121028 0.992641 -0.004109
vn 0.123638 0.992315 -0.004917
vn 0.124847 0.991647 0.032383
vn -0.019216 0.999698 0.015307
vn -0.016017 0.947960 0.317985
vn 0.131703 0.991280 0.004334
vn 0.124847 0.991647 0.032383
vn 0.036639 -0.016832 -0.999187
vn 0.036638 -0.016961 -0.999185
vn 0.036638 -0.016961 -0.999185
vn 0.036639 -0.016832 -0.999187
vn -0.997977 -0.006344 -0.063259
vn -0.997977 -0.006344 -0.063259
vn -0.997977 -0.006344 -0.063259
vn -0.997977 -0.006344 -0.063259
vn 0.999587 0.008572 0.027418
vn 0.999587 0.008572 0.027418
vn 0.999587 0.008572 0.027418
vn 0.999587 0.008572 0.027418
vn -0.033594 0.004637 0.999425
vn -0.033594 0.004637 0.999425
vn -0.033594 0.004637 0.999425
vn -0.033594 0.004637 0.999425
vn 0.000000 -1.000000 0.000000
vn 0.000000 -1.000000 0.000000
vn 0.000000 -1.000000 0.000000
vn 0.000000 -1.000000 0.000000
vn 0.000000 -1.000000 0.000000
vn 0.000000 -1.000000 0.000000
vn 0.000000 -1.000000 0.000000
vn 0.000000 -1.000000 0.000000
vn 0.000000 -1.000000 0.000000
vn 0.000000 -1.000000 0.000000
vn 0.000000 -1.000000 0.000000
vn 0.000000 -1.000000 0.000000
vn 0.000000 -1.000000 0.000000
vn -0.000060 -0.999998 0.002082
vn 0.000000 -1.000000 0.000000
vn 0.000000 -1.000000 0.000000
vn 0.020651 0.254339 -0.966895
vn 0.020653 0.254341 -0.966894
vn 0.020344 0.293804 -0.955649
vn 0.020398 0.286549 -0.957848
vn -0.949138 0.314835 -0.004064
vn -0.949138 0.314834 -0.004064
vn -0.949138 0.314834 -0.004064
vn -0.949138 0.314834 -0.004064
vn 0.949485 0.313803 -0.002560
vn 0.949485 0.313803 -0.002560
vn 0.949485 0.313803 -0.002560
vn 0.949485 0.313803 -0.002560
vn -0.002951 0.287690 0.957719
vn -0.003030 0.248808 0.968548
vn -0.003031 0.248805 0.968549
vn -0.002960 0.284995 0.958524
vn 0.017716 0.538319 -0.842555
vn 0.016977 0.589111 -0.807874
vn 0.007343 0.934687 -0.355396
vn 0.007383 0.933955 -0.357314
vn -0.711112 0.703072 -0.003034
vn -0.708937 0.705265 -0.003025
vn -0.268402 0.963306 -0.001336
vn -0.268402 0.963306 -0.001336
vn 0.717087 0.696979 -0.002456
vn 0.705908 0.708299 -0.002421
vn 0.267112 0.963665 -0.001064
vn 0.267112 0.963665 -0.001064
vn -0.000609 0.938781 0.344515
vn -0.002234 0.596206 0.802828
vn -0.002328 0.565908 0.824465
vn -0.000582 0.944520 0.328453
vn 0.401551 0.915024 -0.038576
vn 0.011082 0.856836 -0.515470
vn 0.009511 0.903745 -0.427966
vn 0.319161 0.947062 -0.034785
vn -0.399361 0.915861 -0.041346
vn -0.400403 0.915627 0.036116
vn -0.318293 0.947419 0.032965
vn -0.317194 0.947571 -0.038692
vn 0.401434 0.915168 0.036316
vn 0.401551 0.915024 -0.038576
vn 0.319161 0.947062 -0.034785
vn 0.317907 0.947540 0.033216
vn 0.000534 0.905084 0.425233
vn 0.000133 0.856489 0.516165
vn 0.401434 0.915168 0.036316
vn 0.317907 0.947540 0.033216
vn 0.000006 1.000000 0.000046
vn 0.000005 1.000000 0.000046
vn 0.000005 1.000000 0.000046
vn 0.000006 1.000000 0.000046
vn -0.475372 0.878904 -0.039366
vn -0.475226 0.879178 0.034736
vn -0.400403 0.915627 0.036116
vn -0.399361 0.915861 -0.041346
vn 0.000133 0.856489 0.516165
vn -0.000215 0.806713 0.590943
vn 0.475957 0.878750 0.035544
vn 0.401434 0.915168 0.036316
vn 0.475957 0.878750 0.035544
vn 0.475928 0.878590 -0.039644
vn 0.401551 0.915024 -0.038576
vn 0.401434 0.915168 0.036316
vn 0.475928 0.878590 -0.039644
vn 0.012361 0.809010 -0.587664
vn 0.011082 0.856836 -0.515470
vn 0.401551 0.915024 -0.038576
vn -0.865919 0.500172 -0.003596
vn -0.865919 0.500172 -0.003596
vn -0.708937 0.705265 -0.003025
vn -0.711112 0.703072 -0.003034
vn -0.002234 0.596206 0.802828
vn -0.002951 0.287690 0.957719
vn -0.002960 0.284995 0.958524
vn -0.002328 0.565908 0.824465
vn 0.867759 0.496977 -0.002898
vn 0.867759 0.496977 -0.002898
vn 0.705908 0.708299 -0.002421
vn 0.717087 0.696979 -0.002456
vn 0.020398 0.286549 -0.957848
vn 0.020344 0.293804 -0.955649
vn 0.016977 0.589111 -0.807874
vn 0.017716 0.538319 -0.842555
vn 0.016740 0.000000 -0.999860
vn 0.016740 0.000000 -0.999860
vn 0.016741 0.000000 -0.999860
vn 0.016741 0.000000 -0.999860
vn -0.001034 0.999214 0.039637
vn -0.001007 0.999254 0.038600
vn -0.001102 0.999106 0.042267
vn -0.001046 0.999195 0.040101
vn 0.036638 -0.016961 -0.999185
vn 0.036638 -0.016961 -0.999185
vn 0.036638 -0.016984 -0.999184
vn 0.036638 -0.016984 -0.999184
vn 0.000000 -1.000000 0.000000
vn 0.000000 -1.000000 0.000000
vn 0.000000 -1.000000 0.000000
vn 0.000000 -1.000000 0.000000
vn 0.020344 0.293804 -0.955649
vn 0.020653 0.254341 -0.966894
vn 0.020653 0.254341 -0.966894
vn 0.020335 0.295132 -0.955240
vn 0.016977 0.589111 -0.807874
vn 0.020344 0.293804 -0.955649
vn 0.020335 0.295132 -0.955240
vn 0.016964 0.589899 -0.807299
vn 0.007343 0.934687 -0.355396
vn 0.016977 0.589111 -0.807874
vn 0.016964 0.589899 -0.807299
vn 0.007340 0.934728 -0.355288
vn 0.011082 0.856836 -0.515470
vn 0.012361 0.809010 -0.587664
vn 0.012457 0.805692 -0.592204
vn 0.011154 0.854626 -0.519124
vn 0.009511 0.903745 -0.427966
vn 0.011082 0.856836 -0.515470
vn 0.011154 0.854626 -0.519124
vn 0.009518 0.903578 -0.428318
vn 0.000005 1.000000 0.000046
vn 0.000005 1.000000 0.000046
vn 0.000006 1.000000 0.000045
vn 0.000006 1.000000 0.000045
vn 0.000536 0.904789 0.425860
vn 0.000138 0.855313 0.518112
vn 0.000133 0.856489 0.516165
vn 0.000534 0.905084 0.425233
vn 0.000138 0.855313 0.518112
vn -0.000216 0.803974 0.594664
vn -0.000215 0.806713 0.590943
vn 0.000133 0.856489 0.516165
vn -0.000612 0.938408 0.345528
vn -0.002250 0.589372 0.807859
vn -0.002234 0.596206 0.802828
vn -0.000609 0.938781 0.344515
vn -0.002250 0.589372 0.807859
vn -0.002952 0.286741 0.958004
vn -0.002951 0.287690 0.957719
vn -0.002234 0.596206 0.802828
vn -0.002952 0.286741 0.958004
vn -0.003029 0.248808 0.968548
vn -0.003030 0.248808 0.968548
vn -0.002951 0.287690 0.957719
vn 0.000000 -1.000000 0.000000
vn -0.000062 -0.999998 0.002126
vn -0.000060 -0.999998 0.002082
vn 0.000000 -1.000000 0.000000
vn -0.030666 0.002536 0.999527
vn -0.030666 0.002536 0.999527
vn -0.030666 0.002536 0.999527
vn -0.030666 0.002536 0.999527
vn -0.019218 0.999730 0.013033
vn -0.012014 0.990467 0.137222
vn -0.016017 0.947960 0.317985
vn -0.019216 0.999698 0.015307
vn -0.013245 0.000000 0.999912
vn -0.013245 0.000000 0.999912
vn -0.013245 0.000000 0.999912
vn -0.013245 0.000000 0.999912
vn -0.013859 -0.999904 -0.000392
vn -0.013859 -0.999904 -0.000392
vn -0.013859 -0.999904 -0.000370
vn -0.013859 -0.999904 -0.000370
vn 0.016741 0.000000 -0.999860
vn 0.016741 0.000000 -0.999860
vn 0.016741 0.000000 -0.999860
vn 0.016741 0.000000 -0.999860
vn -0.001046 0.999195 0.040101
vn -0.001102 0.999106 0.042267
vn 0.031535 0.999498 0.003051
vn 0.029978 0.999537 0.005267
vn 0.036638 -0.016984 -0.999184
vn 0.036638 -0.016984 -0.999184
vn 0.036635 -0.017112 -0.999182
vn 0.036635 -0.017112 -0.999182
vn 0.000000 -1.000000 0.000000
vn 0.000000 -1.000000 0.000000
vn 0.000000 -1.000000 0.000000
vn 0.000000 -1.000000 0.000000
vn 0.020335 0.295132 -0.955240
vn 0.020653 0.254341 -0.966894
vn 0.020652 0.254339 -0.966895
vn 0.020359 0.292663 -0.955999
vn 0.016964 0.589899 -0.807299
vn 0.020335 0.295132 -0.955240
vn 0.020359 0.292663 -0.955999
vn 0.017504 0.553883 -0.832410
vn 0.007340 0.934728 -0.355288
vn 0.016964 0.589899 -0.807299
vn 0.017504 0.553883 -0.832410
vn 0.007301 0.935449 -0.353386
vn 0.011154 0.854626 -0.519124
vn 0.012457 0.805692 -0.592204
vn -0.475372 0.878904 -0.039366
vn -0.399361 0.915861 -0.041346
vn 0.009518 0.903578 -0.428318
vn 0.011154 0.854626 -0.519124
vn -0.399361 0.915861 -0.041346
vn -0.317194 0.947571 -0.038692
vn 0.000006 1.000000 0.000045
vn 0.000006 1.000000 0.000045
vn 0.000011 1.000000 0.000045
vn 0.000011 1.000000 0.000045
vn -0.400403 0.915627 0.036116
vn 0.000138 0.855313 0.518112
vn 0.000536 0.904789 0.425860
vn -0.318293 0.947419 0.032965
vn -0.475226 0.879178 0.034736
vn -0.000216 0.803974 0.594664
vn 0.000138 0.855313 0.518112
vn -0.400403 0.915627 0.036116
vn -0.002396 0.530424 0.847729
vn -0.002250 0.589372 0.807859
vn -0.000612 0.938408 0.345528
vn -0.000643 0.931674 0.363295
vn -0.002964 0.280356 0.959892
vn -0.002952 0.286741 0.958004
vn -0.002250 0.589372 0.807859
vn -0.002396 0.530424 0.847729
vn -0.003029 0.248809 0.968548
vn -0.003029 0.248808 0.968548
vn -0.002952 0.286741 0.958004
vn -0.002964 0.280356 0.959892
vn 0.000000 -1.000000 0.000000
vn -0.000062 -0.999998 0.002126
vn 0.000000 -1.000000 0.000000
vn 0.000000 -1.000000 0.000000
vn -0.033340 0.000424 0.999444
vn -0.033340 0.000424 0.999444
vn -0.033340 0.000424 0.999444
vn -0.033340 0.000424 0.999444
vn 0.029826 0.999555 -0.000986
vn -0.012014 0.990467 0.137222
vn -0.019218 0.999730 0.013033
vn 0.029406 0.999567 -0.001364
vn -0.013245 0.000000 0.999912
vn -0.013245 0.000000 0.999912
vn -0.013245 0.000000 0.999912
vn -0.013245 0.000000 0.999912
vn -0.013857 -0.999904 -0.000508
vn -0.013859 -0.999904 -0.000392
vn -0.013859 -0.999904 -0.000392
vn -0.013857 -0.999904 -0.000508
vn 0.999394 0.012023 0.032678
vn 0.999394 0.012023 0.032678
vn 0.999394 0.012023 0.032678
vn 0.999394 0.012023 0.032678
vn -0.019218 0.999730 0.013033
vn -0.019216 0.999698 0.015307
vn -0.019668 0.999802 -0.003051
vn -0.019668 0.999802 -0.003051
vn -0.999446 -0.006268 -0.032693
vn -0.999446 -0.006268 -0.032693
vn -0.999446 -0.006268 -0.032693
vn -0.999446 -0.006268 -0.032693
vn -0.000060 -0.999998 0.002082
vn -0.000062 -0.999998 0.002126
vn -0.000069 -0.999997 0.002405
vn -0.000069 -0.999997 0.002405
s off
g Stoofje_Final1:Stoofje:pPlane1
usemtl initialShadingGroup
f 60/1/1 41/2/2 2/3/3 4/4/4
f 2/3/5 41/2/6 42/5/7 6/6/8
f 1/7/9 3/8/10 7/9/11 5/10/12
f 4/4/13 2/3/14 6/6/15 8/11/16
f 59/12/17 60/1/18 4/4/19 8/11/20
f 6/13/21 42/14/22 43/15/23 10/16/24
f 5/17/25 7/18/26 11/19/27 9/20/28
f 8/21/29 6/13/30 10/16/31 12/22/32
f 58/23/33 59/24/34 8/21/35 12/22/36
f 10/25/37 43/26/38 44/27/39 14/28/40
f 9/29/41 11/30/42 15/31/43 13/32/44
f 12/33/45 10/25/46 14/28/47 16/34/48
f 57/35/49 58/36/50 12/33/51 16/34/52
f 14/37/53 44/38/54 45/39/55 18/40/56
f 13/41/57 15/42/58 19/43/59 17/44/60
f 16/45/61 14/37/62 18/40/63 20/46/64
f 56/47/65 57/48/66 16/45/67 20/46/68
f 18/49/69 45/50/70 46/51/71 22/52/72
f 17/53/73 19/54/74 23/55/75 21/56/76
f 20/57/77 18/49/78 22/52/79 24/58/80
f 55/59/81 56/60/82 20/57/83 24/58/84
f 40/61/85 47/62/86 48/63/87 26/64/88
f 37/65/89 38/66/90 27/67/91 25/68/92
f 39/69/93 40/61/94 26/64/95 28/70/96
f 53/71/97 54/72/98 39/69/99 28/70/100
f 36/73/101 49/74/102 50/75/103 30/76/104
f 33/77/105 34/78/106 31/79/107 29/80/108
f 35/81/109 36/73/110 30/76/111 32/82/112
f 51/83/113 52/84/114 35/81/115 32/82/116
f 30/76/117 50/75/118 51/83/119 32/82/120
f 25/68/121 27/67/122 34/78/123 33/77/124
f 52/84/125 53/71/126 28/70/127 35/81/128
f 28/70/129 26/64/130 36/73/131 35/81/132
f 26/64/133 48/63/134 49/74/135 36/73/136
f 21/56/137 23/55/138 38/66/139 37/65/140
f 54/72/141 55/59/142 24/58/143 39/69/144
f 24/58/145 22/52/146 40/61/147 39/69/148
f 22/52/149 46/51/150 47/62/151 40/61/152
f 42/5/153 41/2/154 61/85/155 62/86/156
f 43/15/157 42/14/158 62/87/159 63/88/160
f 44/27/161 43/26/162 63/89/163 64/90/164
f 45/39/165 44/38/166 64/91/167 65/92/168
f 46/51/169 45/50/170 65/93/171 66/94/172
f 47/62/173 46/51/174 66/94/175 67/95/176
f 48/63/177 47/62/178 67/95/179 68/96/180
f 49/74/181 48/63/182 68/96/183 69/97/184
f 50/75/185 49/74/186 69/97/187 70/98/188
f 51/83/189 50/75/190 70/98/191 71/99/192
f 71/99/193 72/100/194 52/84/195 51/83/196
f 72/100/197 73/101/198 53/71/199 52/84/200
f 73/101/201 74/102/202 54/72/203 53/71/204
f 74/102/205 75/103/206 55/59/207 54/72/208
f 75/103/209 76/104/210 56/60/211 55/59/212
f 76/105/213 77/106/214 57/48/215 56/47/216
f 81/107/217 82/108/218 83/109/219 84/110/220
f 78/111/221 79/112/222 59/24/223 58/23/224
f 79/113/225 80/114/226 60/1/227 59/12/228
f 80/114/229 61/85/230 41/2/231 60/1/232
f 62/86/233 61/85/234 1/7/235 5/10/236
f 63/88/237 62/87/238 5/17/239 9/20/240
f 64/90/241 63/89/242 9/29/243 13/32/244
f 65/92/245 64/91/246 13/41/247 17/44/248
f 66/94/249 65/93/250 17/53/251 21/56/252
f 67/95/253 66/94/254 21/56/255 37/65/256
f 68/96/257 67/95/258 37/65/259 25/68/260
f 69/97/261 68/96/262 25/68/263 33/77/264
f 70/98/265 69/97/266 33/77/267 29/80/268
f 71/99/269 70/98/270 29/80/271 31/79/272
f 34/78/273 72/100/274 71/99/275 31/79/276
f 27/67/277 73/101/278 72/100/279 34/78/280
f 38/66/281 74/102/282 73/101/283 27/67/284
f 23/55/285 75/103/286 74/102/287 38/66/288
f 19/54/289 76/104/290 75/103/291 23/55/292
f 15/42/293 77/106/294 76/105/295 19/43/296
f 11/30/297 78/115/298 77/116/299 15/31/300
f 7/18/301 79/112/302 78/111/303 11/19/304
f 3/8/305 80/114/306 79/113/307 7/9/308
f 1/7/309 61/85/310 80/114/311 3/8/312
f 77/117/313 78/118/314 82/108/315 81/107/316
f 78/111/317 58/23/318 83/119/319 82/120/320
f 58/121/321 57/122/322 84/110/323 83/109/324
f 57/48/325 77/106/326 81/123/327 84/124/328
