# This file uses centimeters as units for non-parametric coordinates.

mtllib kaart.mtl
g default
v -2.307167 0.655282 2.000000
v -2.115463 0.655282 2.000000
v 2.328063 0.655282 2.000000
v 2.500000 0.655282 2.000000
v -2.307167 0.753534 2.000000
v -2.115463 0.753534 2.000000
v 2.328063 0.753534 2.000000
v 2.500000 0.753534 2.000000
v -2.307167 0.753534 1.808252
v -2.115463 0.753534 1.808252
v 2.328063 0.753534 1.808252
v 2.500000 0.753534 1.808252
v -2.307167 0.753534 -1.829527
v -2.115463 0.753534 -1.829527
v 2.328063 0.753534 -1.829527
v 2.500000 0.753534 -1.829527
v -2.307167 0.753534 -2.000000
v -2.115463 0.753534 -2.000000
v 2.328063 0.753534 -2.000000
v 2.500000 0.753534 -2.000000
v -2.307167 0.655282 -2.000000
v -2.115463 0.655282 -2.000000
v 2.328063 0.655282 -2.000000
v 2.500000 0.655282 -2.000000
v -2.307167 0.655282 -1.829527
v -2.115463 0.655282 -1.829527
v 2.328063 0.655282 -1.829527
v 2.500000 0.655282 -1.829527
v -2.307167 0.655282 1.808252
v -2.115463 0.655282 1.808252
v 2.328063 0.655282 1.808252
v 2.500000 0.655282 1.808252
v 2.335265 0.720180 1.858331
v -2.117280 0.720180 1.858331
v 2.335265 0.720180 -1.858331
v -2.117280 0.720180 -1.858331
vt 0.984534 0.898417
vt 0.920677 0.036906
vt 0.049041 0.036949
vt 0.015314 0.036951
vt 0.943229 0.873950
vt 0.954196 0.926584
vt 0.943228 0.898417
vt 0.015314 0.839396
vt 0.984535 0.873950
vt 0.971875 0.864422
vt 0.943228 0.874610
vt 0.984535 0.897757
vt 0.015314 0.906429
vt 0.927763 0.956528
vt 0.965662 0.956528
vt 0.049305 0.956528
vt 0.943229 0.897757
vt 0.920716 0.821540
vt 0.958320 0.821538
vt 0.049080 0.821584
vt 0.061776 0.873950
vt 0.954295 0.927191
vt 0.984534 0.874610
vt 0.971943 0.839396
vt 0.061776 0.897757
vt 0.013255 0.864422
vt 0.061775 0.898417
vt 0.015314 0.873950
vt 0.015314 0.905824
vt 0.015314 0.926584
vt 0.049043 0.074562
vt 0.971943 0.865233
vt 0.015314 0.865233
vt 0.049078 0.788144
vt 0.015314 0.927191
vt 0.954295 0.906429
vt 0.920714 0.788100
vt 0.013254 0.838531
vt 0.971875 0.838531
vt 0.920678 0.074519
vt 0.954196 0.905824
vt 0.015316 0.074564
vt 0.015314 0.955801
vt 0.015314 0.897757
vt 0.958283 0.074517
vt 0.965665 0.955801
vt 0.958281 0.036904
vt 0.015351 0.788146
vt 0.958318 0.788098
vt 0.015314 0.937105
vt 0.015353 0.821585
vt 0.965662 0.937105
vt 0.061776 0.874610
vt 0.015314 0.956528
vt 0.015314 0.898417
vt 0.015314 0.936377
vt 0.965665 0.936377
vt 0.015314 0.874610
vt 0.049305 0.937105
vt 0.927763 0.937105
vt 0.049305 0.936377
vt 0.927766 0.936377
vt 0.049305 0.955801
vt 0.927766 0.955801
vt 0.070823 0.087436
vt 0.895311 0.087436
vt 0.895311 0.775659
vt 0.070823 0.775659
vn 0.000000 0.000000 1.000000
vn 0.000000 0.000000 1.000000
vn 0.000000 0.000000 1.000000
vn 0.000000 0.000000 1.000000
vn 0.000000 0.000000 1.000000
vn 0.000000 0.000000 1.000000
vn 0.000000 0.000000 1.000000
vn 0.000000 0.000000 1.000000
vn 0.000000 0.000000 -1.000000
vn 0.000000 0.000000 -1.000000
vn 0.000000 0.000000 -1.000000
vn 0.000000 0.000000 -1.000000
vn 0.000000 0.000000 -1.000000
vn 0.000000 0.000000 -1.000000
vn 0.000000 0.000000 -1.000000
vn 0.000000 0.000000 -1.000000
vn 0.000000 -1.000000 0.000000
vn 0.000000 -1.000000 0.000000
vn 0.000000 -1.000000 0.000000
vn 0.000000 -1.000000 0.000000
vn 0.000000 -1.000000 0.000000
vn 0.000000 -1.000000 0.000000
vn 0.000000 -1.000000 0.000000
vn 0.000000 -1.000000 0.000000
vn 0.000000 -1.000000 0.000000
vn 0.000000 -1.000000 0.000000
vn 0.000000 -1.000000 0.000000
vn 0.000000 -1.000000 0.000000
vn 0.000000 -1.000000 0.000000
vn 0.000000 -1.000000 0.000000
vn 0.000000 -1.000000 0.000000
vn 0.000000 -1.000000 0.000000
vn 1.000000 -0.000001 0.000000
vn 1.000000 0.000000 0.000000
vn 1.000000 0.000000 0.000000
vn 1.000000 -0.000001 0.000000
vn 1.000000 -0.000001 0.000000
vn 1.000000 -0.000001 0.000000
vn 1.000000 0.000000 0.000000
vn 1.000000 0.000000 0.000000
vn -1.000000 0.000000 0.000000
vn -1.000000 0.000001 0.000000
vn -1.000000 0.000001 0.000000
vn -1.000000 0.000000 0.000000
vn -1.000000 0.000001 0.000000
vn -1.000000 0.000001 0.000000
vn -1.000000 0.000000 0.000000
vn -1.000000 0.000000 0.000000
vn 1.000000 0.000001 0.000000
vn 1.000000 0.000001 0.000000
vn 1.000000 0.000001 0.000000
vn 1.000000 0.000001 0.000000
vn 0.000000 0.000001 1.000000
vn 0.000000 0.000001 1.000000
vn 0.000000 0.000001 1.000000
vn 0.000000 0.000001 1.000000
vn 0.000000 -0.000001 -1.000000
vn 0.000000 -0.000001 -1.000000
vn 0.000000 -0.000001 -1.000000
vn 0.000000 -0.000001 -1.000000
vn -1.000000 0.000001 0.000000
vn -1.000000 0.000001 0.000000
vn -1.000000 0.000001 0.000000
vn -1.000000 0.000001 0.000000
vn -0.000000 -1.000000 0.000000
vn -0.000000 -1.000000 0.000000
vn -0.000000 -1.000000 0.000000
vn -0.000000 -1.000000 0.000000
s 1
g pPlane4
usemtl lambert2SG
f 1/46/1 2/64/2 6/62/3 5/57/4
f 2/64/2 3/63/5 7/61/6 6/62/3
f 3/63/5 4/43/7 8/56/8 7/61/6
s 2
f 17/15/9 18/14/10 22/60/11 21/52/12
f 18/14/10 19/16/13 23/59/14 22/60/11
f 19/16/13 20/54/15 24/50/16 23/59/14
s 3
f 21/19/17 22/18/18 26/37/19 25/49/20
f 22/18/18 23/20/21 27/34/22 26/37/19
f 23/20/21 24/51/23 28/48/24 27/34/22
f 25/49/20 26/37/19 30/40/25 29/45/26
f 27/34/22 28/48/24 32/42/27 31/31/28
f 29/45/26 30/40/25 2/2/29 1/47/30
f 30/40/25 31/31/28 3/3/31 2/2/29
f 31/31/28 32/42/27 4/4/32 3/3/31
s 4
f 28/5/33 24/9/34 20/12/35 16/17/36
f 32/21/37 28/5/33 16/17/36 12/25/38
f 4/28/39 32/21/37 12/25/38 8/44/40
s 5
f 21/1/41 25/7/42 13/11/43 17/23/44
f 25/7/42 29/27/45 9/53/46 13/11/43
f 29/27/45 1/55/47 5/58/48 9/53/46
s off
f 14/10/49 10/26/50 30/38/51 26/39/52
f 15/13/53 14/36/54 26/22/55 27/35/56
f 10/6/57 11/30/58 31/29/59 30/41/60
f 11/8/61 15/24/62 27/32/63 31/33/64
f 33/65/65 34/66/66 36/67/67 35/68/68
